<svg xmlns="http://www.w3.org/2000/svg" xmlns:xlink="http://www.w3.org/1999/xlink" aria-hidden="true" role="img" width="32" height="32" preserveAspectRatio="xMidYMid meet" viewBox="0 0 256 256">
  <path fill="#1877F2" d="M256 128C256 57.3 198.7 0 128 0S0 57.3 0 128c0 64.6 47.8 118.1 110 127.2V165.9h-33v-37.9h33v-28.7c0-32.7 19.4-50.8 49.3-50.8c14.3 0 29.3 2.5 29.3 2.5v32h-16.5c-16.3 0-21.3 10.1-21.3 20.5v24.5h36.4l-5.8 37.9h-30.6v89.3C208.2 246.1 256 192.6 256 128"/>
  <path fill="#fff" d="M177.5 165.9l5.8-37.9h-36.4v-24.5c0-10.4 5-20.5 21.3-20.5h16.5v-32s-15-2.5-29.3-2.5c-29.9 0-49.3 18.1-49.3 50.8v28.7h-33v37.9h33v89.3a127.9 127.9 0 0 0 36.3 0v-89.3h30.6"/>
</svg>